<svg xmlns="http://www.w3.org/2000/svg" version="1.1" width="128px" height="128px" style="shape-rendering:geometricPrecision; text-rendering:geometricPrecision; image-rendering:optimizeQuality; fill-rule:evenodd; clip-rule:evenodd" xmlns:xlink="http://www.w3.org/1999/xlink">
<g><path style="opacity:0.995" fill="#c4e7fa" d="M 59.5,-0.5 C 62.1667,-0.5 64.8333,-0.5 67.5,-0.5C 102.5,4.5 122.5,24.5 127.5,59.5C 127.5,62.1667 127.5,64.8333 127.5,67.5C 122.5,102.5 102.5,122.5 67.5,127.5C 64.8333,127.5 62.1667,127.5 59.5,127.5C 24.5,122.5 4.5,102.5 -0.5,67.5C -0.5,64.8333 -0.5,62.1667 -0.5,59.5C 4.5,24.5 24.5,4.5 59.5,-0.5 Z"/></g>
<g><path style="opacity:1" fill="#1852a2" d="M 71.5,54.5 C 77.5706,57.0392 82.7373,61.0392 87,66.5C 87.6667,67.1667 87.6667,67.8333 87,68.5C 85.6244,69.7051 84.4577,71.0384 83.5,72.5C 82.1266,72.6567 80.7932,72.49 79.5,72C 77.2968,69.6278 74.9635,67.4611 72.5,65.5C 71.3896,62.0583 69.5562,59.0583 67,56.5C 62.8826,58.9982 58.3826,59.9982 53.5,59.5C 44.7327,57.5606 40.0661,52.0606 39.5,43C 41.4709,30.3442 48.8043,25.0109 61.5,27C 74.0031,33.0211 76.6697,42.0211 69.5,54C 70.0944,54.4643 70.7611,54.631 71.5,54.5 Z"/></g>
<g><path style="opacity:1" fill="#c3e6f9" d="M 68.5,49.5 C 60.5,48.1667 52.5,48.1667 44.5,49.5C 40.8093,38.551 44.6427,31.8843 56,29.5C 68.0696,31.3151 72.2363,37.9817 68.5,49.5 Z"/></g>
<g><path style="opacity:1" fill="#0f4e9f" d="M 33.5,49.5 C 36.6041,48.9711 38.9375,49.9711 40.5,52.5C 38.2573,53.4742 35.924,53.8076 33.5,53.5C 33.5,52.1667 33.5,50.8333 33.5,49.5 Z"/></g>
<g><path style="opacity:1" fill="#104d9f" d="M 88.5,72.5 C 87.6236,72.6309 86.9569,72.2975 86.5,71.5C 87.1449,70.354 87.9783,69.354 89,68.5C 89.6667,64.1667 89.6667,59.8333 89,55.5C 88.5,55 88,54.5 87.5,54C 82.3165,53.8261 77.3165,53.3261 72.5,52.5C 72.8039,51.8501 73.1373,51.1835 73.5,50.5C 78.8023,49.3372 84.1357,49.1705 89.5,50C 90.4162,50.3742 91.2496,50.8742 92,51.5C 93.5699,57.0527 93.9032,62.7194 93,68.5C 92.2079,70.6437 90.7079,71.977 88.5,72.5 Z"/></g>
<g><path style="opacity:1" fill="#a6cdeb" d="M 68.5,49.5 C 63.729,56.3942 57.3957,58.2276 49.5,55C 47.6266,53.2962 45.9599,51.4628 44.5,49.5C 52.5,48.1667 60.5,48.1667 68.5,49.5 Z"/></g>
<g><path style="opacity:1" fill="#0e4d9f" d="M 46.5,50.5 C 52.987,49.346 59.6536,49.1794 66.5,50C 63.9087,52.9932 60.5754,54.1598 56.5,53.5C 52.588,54.0069 49.2546,53.0069 46.5,50.5 Z"/></g>
<g><path style="opacity:1" fill="#a6ccea" d="M 72.5,52.5 C 77.3165,53.3261 82.3165,53.8261 87.5,54C 88,54.5 88.5,55 89,55.5C 89.6667,59.8333 89.6667,64.1667 89,68.5C 87.9783,69.354 87.1449,70.354 86.5,71.5C 86.9569,72.2975 87.6236,72.6309 88.5,72.5C 86.9504,73.7199 85.2837,73.7199 83.5,72.5C 84.4577,71.0384 85.6244,69.7051 87,68.5C 87.6667,67.8333 87.6667,67.1667 87,66.5C 82.7373,61.0392 77.5706,57.0392 71.5,54.5C 71.3284,53.5084 71.6618,52.8417 72.5,52.5 Z"/></g>
<g><path style="opacity:1" fill="#0f4d9f" d="M 51.5,60.5 C 56.6319,62.0381 61.6319,61.3715 66.5,58.5C 67.9563,61.0581 69.2896,63.7248 70.5,66.5C 59.4798,66.8321 48.4798,66.4988 37.5,65.5C 38.8333,62.5 38.8333,59.5 37.5,56.5C 39.4213,55.359 41.4213,55.1923 43.5,56C 45.7357,58.2841 48.4024,59.7841 51.5,60.5 Z"/></g>
<g><path style="opacity:1" fill="#1954a3" d="M 78.5,56.5 C 84.8417,54.3346 87.3417,56.668 86,63.5C 83.6303,60.9614 81.1303,58.6281 78.5,56.5 Z"/></g>
<g><path style="opacity:1" fill="#9ec6e6" d="M 72.5,65.5 C 71.8333,65.8333 71.1667,66.1667 70.5,66.5C 69.2896,63.7248 67.9563,61.0581 66.5,58.5C 61.6319,61.3715 56.6319,62.0381 51.5,60.5C 52.4916,60.6716 53.1583,60.3382 53.5,59.5C 58.3826,59.9982 62.8826,58.9982 67,56.5C 69.5562,59.0583 71.3896,62.0583 72.5,65.5 Z"/></g>
<g><path style="opacity:1" fill="#0b4b9e" d="M 33.5,68.5 C 47.1707,68.3334 60.8374,68.5001 74.5,69C 75.5,70 76.5,71 77.5,72C 62.8371,72.4999 48.1705,72.6666 33.5,72.5C 33.5,71.1667 33.5,69.8333 33.5,68.5 Z"/></g>
<g><path style="opacity:1" fill="#0a4b9e" d="M 29.5,75.5 C 53.1667,75.5 76.8333,75.5 100.5,75.5C 100.5,76.8333 100.5,78.1667 100.5,79.5C 77.4976,79.3334 54.4976,79.5 31.5,80C 30.1667,85.3333 30.1667,90.6667 31.5,96C 54.4976,96.5 77.4976,96.6666 100.5,96.5C 100.5,97.8333 100.5,99.1667 100.5,100.5C 76.831,100.667 53.1643,100.5 29.5,100C 28.6667,99.1667 27.8333,98.3333 27,97.5C 26.3333,91.1667 26.3333,84.8333 27,78.5C 28.045,77.6266 28.8783,76.6266 29.5,75.5 Z"/></g>
<g><path style="opacity:1" fill="#0a4b9e" d="M 95.5,91.5 C 75.5275,93.4883 55.1941,94.1549 34.5,93.5C 33.179,89.7674 33.179,85.9341 34.5,82C 55.1747,81.1669 75.8414,81.3336 96.5,82.5C 95.5934,85.4212 95.2601,88.4212 95.5,91.5 Z"/></g>
<g><path style="opacity:1" fill="#215ea9" d="M 95.5,91.5 C 96.404,92.209 96.7373,93.209 96.5,94.5C 75.6599,94.8305 54.9933,94.4972 34.5,93.5C 55.1941,94.1549 75.5275,93.4883 95.5,91.5 Z"/></g>
</svg>
